<?xml version="1.0" standalone="no"?>
<!DOCTYPE svg PUBLIC "-//W3C//DTD SVG 20010904//EN"
 "http://www.w3.org/TR/2001/REC-SVG-20010904/DTD/svg10.dtd">
<svg version="1.0" xmlns="http://www.w3.org/2000/svg"
 width="1716.000000pt" height="1716.000000pt" viewBox="0 0 1716.000000 1716.000000"
 preserveAspectRatio="xMidYMid meet">
<metadata>
Created by potrace 1.11, written by Peter Selinger 2001-2013
</metadata>
<g transform="translate(0.000000,1716.000000) scale(0.100000,-0.100000)"
fill="#000000" stroke="none">
<path d="M579 15121 c9 -17 5089 -8814 6788 -11756 366 -632 673 -1163 684
-1180 18 -30 19 75 19 6463 l0 6492 -3750 0 c-3675 0 -3750 0 -3741 -19z
m6601 -2451 l0 -1580 -1622 0 -1623 0 -815 1412 c-448 777 -859 1488 -912
1580 l-97 168 2535 0 2534 0 0 -1580z m0 -4832 c0 -2316 -1 -2362 -19 -2333
-10 17 -616 1065 -1346 2330 -730 1265 -1336 2315 -1347 2333 l-20 32 1366 0
1366 0 0 -2362z"/>
<path d="M8950 8648 c0 -3570 2 -6489 4 -6487 2 2 200 342 438 756 l435 752 6
692 c4 381 7 1850 7 3266 l0 2573 1881 2 1881 3 254 440 254 440 -2135 3
-2135 2 0 1580 0 1580 2534 0 2534 0 -253 -437 -252 -438 510 -3 c281 -1 514
1 518 5 4 5 224 384 489 843 265 459 493 854 507 878 l25 42 -3751 0 -3751 0
0 -6492z"/>
</g>
</svg>
